# xmcd CD database file
#
# Track frame offsets:
#	150
#	20002
#	37950
#	58037
#	78435
#	93947
#	112540
#	127987
#	146307
#	162767
#	182785
#
# Disc length: 2720 seconds
#
# Revision: 0
# Processed by: cddbd v1.5PL3 Copyright (c) Steve Scherf et al.
# Submitted via: CDex 1.51
#
DISCID=7d0a9e0b
DTITLE=北原愛子 - PIECE OF LOVE
DYEAR=1900
DGENRE=JPop
TTITLE0=明日遥か遠い海に辿り着けるように
TTITLE1=grand blue
TTITLE2=虹色にひかる海
TTITLE3=向日葵のように
TTITLE4=サヨナラを告げた日が近すぎて
TTITLE5=禁断の果実
TTITLE6=Sun rise train
TTITLE7=雪降る夜は抱きしめて
TTITLE8=雨の中
TTITLE9=special Days!! -album mix-
TTITLE10=花咲く道
EXTD=
EXTT0=
EXTT1=
EXTT2=
EXTT3=
EXTT4=
EXTT5=
EXTT6=
EXTT7=
EXTT8=
EXTT9=
EXTT10=
PLAYORDER=
